# xmcd CD database file
#
# Track frame offsets:
#	150
#	54775
#	73833
#	84243
#	109925
#	123450
#	142258
#	162743
#	177808
#	184173
#	190333
#
# Disc length: 3048 seconds
#
# Revision: 2
# Processed by: cddbd v1.5.2PL0 Copyright (c) Steve Scherf et al.
# Submitted via: CDex 1.70beta2
#
DISCID=a00be60b
DTITLE=Joachim Kühn, Mark Nauseef, Tony Newton, Miroslav Tadic - Let's Be Generous
DYEAR=1990
DGENRE=Jazz
TTITLE0=The Prophet
TTITLE1=Senegal
TTITLE2=Avant Garage
TTITLE3=Always Yours
TTITLE4=Something Sweet, Something Tender
TTITLE5=The Captain And I
TTITLE6=Heavy Hanging
TTITLE7=Don't Disturb My Groove
TTITLE8=Snake Oil
TTITLE9=Bintang
TTITLE10=Kissing The Feet
EXTD=YEAR: 1990
EXTT0=
EXTT1=
EXTT2=
EXTT3=
EXTT4=
EXTT5=
EXTT6=
EXTT7=
EXTT8=
EXTT9=
EXTT10=
PLAYORDER=
